<?xml version="1.0" encoding="UTF-8"?>
<svg id="Layer_2" data-name="Layer 2" xmlns="http://www.w3.org/2000/svg" viewBox="0 0 574.75 697.34">
  <defs>
    <style>
      .cls-1 {
        fill: none;
      }
    </style>
  </defs>
  <g id="Layer_1-2" data-name="Layer 1">
    <g>
      <path d="M153.2,638.38l.35-19.46-.35-19.69c0-.46.23-.63.64-.63h6.06c.4,0,.64.17.64.63l-.23,15.54h19.64l-.23-15.54c0-.46.23-.63.64-.63h6.06c.4,0,.64.17.64.63l-.35,19.69.35,19.46c0,.46-.23.64-.64.64h-6.06c-.4,0-.64-.17-.64-.64l.29-18.37h-19.75l.29,18.37c0,.46-.23.64-.64.64h-6.06c-.4,0-.64-.17-.64-.64Z"/>
      <path d="M190.6,638.26l13.86-39.16c.12-.35.35-.52.69-.52h8.37c.35,0,.58.17.69.52l13.69,39.16c.17.4-.06.75-.52.75h-6.06c-.35,0-.58-.17-.69-.52l-3.58-10.74h-15.82l-3.47,10.74c-.12.4-.4.52-.75.52h-5.89c-.46,0-.69-.35-.52-.75ZM215.2,622.09l-6.18-18.66-6.01,18.66h12.19Z"/>
      <path d="M231.46,638.38l.29-19.75-.29-19.41c0-.46.23-.63.64-.63h7.39c.35,0,.58.12.75.4l18.71,30.78-.23-13.63-.06-16.92c0-.46.23-.63.64-.63h5.49c.4,0,.64.17.64.63l-.35,19.41.35,19.75c0,.46-.23.64-.64.64h-7.68c-.35,0-.58-.06-.75-.4l-18.42-30.49.23,14.44.06,15.82c0,.46-.23.64-.64.64h-5.49c-.4,0-.64-.17-.64-.64Z"/>
      <path d="M284.3,638.38l.35-19.87-.35-19.29c0-.46.23-.63.64-.63h14.15c9.3,0,14.9,4.27,14.9,12.59s-5.78,13-14.9,13h-7.68l.23,14.21c0,.46-.23.64-.64.64h-6.06c-.4,0-.64-.17-.64-.64ZM307.12,611.35c0-5.14-2.83-7.57-7.74-7.57h-7.8l-.23,15.19h8.26c4.27,0,7.51-2.14,7.51-7.62Z"/>
      <path d="M312.32,638.26l13.86-39.16c.12-.35.35-.52.69-.52h8.37c.35,0,.58.17.69.52l13.69,39.16c.17.4-.06.75-.52.75h-6.06c-.35,0-.58-.17-.69-.52l-3.58-10.74h-15.82l-3.47,10.74c-.12.4-.4.52-.75.52h-5.89c-.46,0-.69-.35-.52-.75ZM336.93,622.09l-6.18-18.66-6.01,18.66h12.19Z"/>
      <path d="M353.19,638.38l.29-19.92-.29-19.23c0-.46.23-.63.64-.63h15.19c9.65,0,15.42,4.1,15.42,12.24,0,6.18-3.58,10.22-9.47,11.72l10.11,15.71c.29.4.12.75-.4.75h-6.76c-.35,0-.64-.12-.81-.4l-4.5-7.45-5.14-7.97h-7.22l.29,15.19c0,.46-.23.64-.64.64h-6.06c-.4,0-.64-.17-.64-.64ZM369.59,617.99c4.5,0,7.97-2.02,7.97-7.05s-3-7.16-8.14-7.16h-9.01l-.23,14.21h9.41Z"/>
      <path d="M389.88,638.38l.35-19.87-.35-19.29c0-.46.23-.63.64-.63h6.01c.4,0,.64.17.64.63l-.23,17.67,13.46-17.9c.17-.23.46-.4.75-.4h6.87c.52,0,.75.29.4.75l-12.94,15.54,15.94,23.39c.29.46.12.75-.4.75h-7.28c-.35,0-.64-.12-.81-.4l-4.27-6.41-7.74-11.78-3.93,4.74.17,13.23c0,.46-.23.64-.64.64h-6.01c-.4,0-.64-.17-.64-.64Z"/>
    </g>
    <g>
      <path d="M215.25,695.9l.35-19.92-.35-19.23c0-.46.23-.63.64-.63h16.29c8.2,0,14.09,3.18,14.09,9.82,0,4.97-2.54,7.74-7.22,9.07,5.72,1.33,8.32,4.85,8.37,9.47,0,8.66-7.16,12.07-15.07,12.07h-16.46c-.4,0-.64-.17-.64-.64ZM232.23,672.79c4.27,0,6.99-1.79,6.99-5.78s-3-5.89-6.99-5.89h-9.65l-.35,11.67h9.99ZM222.59,691.51h9.65c4.62,0,8.03-1.73,8.03-7.05,0-4.85-3.75-6.64-8.03-6.64h-9.99l.35,13.69Z"/>
      <path d="M252.7,695.9l.35-20.1-.35-19.06c0-.46.23-.63.64-.63h6.06c.4,0,.64.17.64.63l-.35,18.66.35,15.82h16.98c.4,0,.64.23.64.64v4.04c0,.4-.23.64-.64.64h-23.68c-.4,0-.64-.17-.64-.64Z"/>
      <path d="M278.28,676.38c0-12.88,7.8-21.08,19.87-21.08s19.87,8.08,19.87,21.08-7.85,20.96-19.87,20.96-19.87-8.43-19.87-20.96ZM298.2,691.85c7.91,0,12.53-5.83,12.53-15.48s-4.56-15.59-12.59-15.59-12.53,5.89-12.53,15.59,4.62,15.48,12.59,15.48Z"/>
      <path d="M321.67,676.32c0-12.82,7.74-21.02,19.12-21.02,9.41,0,15.65,4.68,17.73,13.11.12.4-.12.69-.52.69h-6.01c-.35,0-.64-.17-.69-.58-1.33-5.14-4.97-7.8-10.45-7.8-7.39,0-11.84,5.89-11.84,15.65s4.62,15.54,12.13,15.54c6.76,0,10.68-4.33,10.86-11.61h-10.97c-.4,0-.64-.23-.64-.63v-3.93c0-.4.23-.63.64-.63h17.85c.4,0,.64.29.64.75.06,14.21-6.64,21.48-18.6,21.48-11.32,0-19.23-8.37-19.23-21.02Z"/>
    </g>
    <g>
      <rect class="cls-1" width="574.75" height="574.75"/>
      <rect x="59.01" y="328.64" width="82.54" height="62.36" transform="translate(-259.54 460.11) rotate(-90)"/>
      <rect x="77.57" y="372.45" width="62.36" height="79.31" transform="translate(-303.35 520.86) rotate(-90)"/>
      <rect x="433.5" y="369.79" width="81.94" height="62.36" transform="translate(73.5 875.44) rotate(-90)"/>
      <rect x="193.83" y="443.29" width="62.36" height="62.36" transform="translate(-249.46 699.48) rotate(-90)"/>
      <rect x="131.46" y="256.19" width="62.36" height="62.36" transform="translate(-124.73 450.02) rotate(-90)"/>
      <rect x="131.46" y="380.92" width="62.36" height="62.36" transform="translate(574.75 249.46) rotate(90)"/>
      <rect x="149.5" y="51.06" width="62.36" height="98.44" transform="translate(80.4 280.97) rotate(-90)"/>
      <rect x="69.1" y="193.83" width="62.36" height="62.36" transform="translate(-124.73 325.29) rotate(-90)"/>
      <rect x="256.19" y="318.56" width="62.36" height="62.36" transform="translate(-62.36 637.12) rotate(-90)"/>
      <rect x="256.19" y="193.83" width="62.36" height="62.36" transform="translate(62.36 512.39) rotate(-90)"/>
      <rect x="181.19" y="118.83" width="87.64" height="62.36" transform="translate(375.02 -75) rotate(90)"/>
      <rect x="193.83" y="69.12" width="62.36" height="62.36" transform="translate(325.32 -124.71) rotate(90)"/>
      <rect x="443.29" y="317.22" width="62.36" height="62.36" transform="translate(126.07 822.87) rotate(-90)"/>
      <rect x="318.56" y="441.94" width="62.36" height="62.36" transform="translate(-123.39 822.87) rotate(-90)"/>
      <rect x="380.92" y="254.85" width="62.36" height="62.36" transform="translate(126.07 698.14) rotate(-90)"/>
      <rect x="393.37" y="367.13" width="62.36" height="87.26" transform="translate(835.31 -13.79) rotate(90)"/>
      <rect x="365.33" y="52.17" width="62.36" height="93.55" transform="translate(297.57 495.45) rotate(-90)"/>
      <rect x="443.29" y="192.49" width="62.36" height="62.36" transform="translate(250.8 698.14) rotate(-90)"/>
      <rect x="305.21" y="116.77" width="89.06" height="62.36" transform="translate(497.7 -201.78) rotate(90)"/>
      <rect x="318.56" y="67.76" width="62.36" height="62.36" transform="translate(448.68 -250.8) rotate(90)"/>
    </g>
  </g>
</svg>