<?xml version="1.0" encoding="UTF-8"?>
<svg id="Layer_2" xmlns="http://www.w3.org/2000/svg" version="1.1" viewBox="0 0 436.75 436.75">
  <!-- Generator: Adobe Illustrator 29.8.2, SVG Export Plug-In . SVG Version: 2.1.1 Build 3)  -->
  <defs>
    <style>
      .st0 {
        fill: #040404;
      }
    </style>
  </defs>
  <g id="Layer_1-2">
    <rect class="st0" x=".1" y="249.56" width="62.36" height="62.36"/>
    <rect class="st0" x=".1" y="311.93" width="62.36" height="62.36"/>
    <rect class="st0" x="374.29" y="310.58" width="62.36" height="62.36"/>
    <rect class="st0" x="124.83" y="374.29" width="62.36" height="62.36"/>
    <rect class="st0" x="62.46" y="187.2" width="62.36" height="62.36"/>
    <rect class="st0" x="62.47" y="311.92" width="62.36" height="62.36"/>
    <rect class="st0" x="62.46" y=".11" width="62.36" height="62.36"/>
    <rect class="st0" x=".1" y="124.83" width="62.36" height="62.36"/>
    <rect class="st0" x="187.2" y="249.57" width="62.36" height="62.36"/>
    <rect class="st0" x="187.19" y="124.84" width="62.36" height="62.36"/>
    <rect class="st0" x="124.84" y="62.47" width="62.36" height="62.36"/>
    <rect class="st0" x="124.84" y=".12" width="62.36" height="62.36"/>
    <rect class="st0" x="374.29" y="248.22" width="62.36" height="62.36"/>
    <rect class="st0" x="249.55" y="372.95" width="62.36" height="63.8"/>
    <rect class="st0" x="311.92" y="185.86" width="62.36" height="62.36"/>
    <rect class="st0" x="311.93" y="310.58" width="62.36" height="62.36"/>
    <rect class="st0" x="311.92" y="-1.23" width="62.36" height="62.36"/>
    <rect class="st0" x="374.29" y="123.49" width="62.36" height="62.36"/>
    <rect class="st0" x="249.57" y="61.12" width="62.36" height="62.36"/>
    <rect class="st0" x="249.56" y="-1.24" width="62.36" height="62.36"/>
  </g>
</svg>