<?xml version="1.0" encoding="UTF-8"?>
<svg id="Layer_2" data-name="Layer 2" xmlns="http://www.w3.org/2000/svg" viewBox="0 0 500 500">
  <defs>
    <style>
      .cls-1 {
        stroke: #000;
        stroke-linecap: round;
        stroke-linejoin: round;
        stroke-width: 50px;
      }

      .cls-1, .cls-2 {
        fill: none;
      }
    </style>
  </defs>
  <g id="Layer_1-2" data-name="Layer 1">
    <g>
      <path class="cls-1" d="M61.9,61.9c48.02,1,95.76,19.83,132.41,56.48,32.03,32.03,50.46,72.54,55.27,114.3-.02.02-.02.04,0,.06.62,5.49,1.02,11.01,1.17,16.52.04.51.04,1.02.04,1.53.13,5.49.02,10.97-.36,16.42v.06c-2.88,45.18-21.59,89.55-56.12,124.08-39.11,39.11-90.84,57.94-142.09,56.44-1.49-51.24,17.31-102.97,56.44-142.09,34.53-34.53,78.9-53.24,124.08-56.12"/>
      <path class="cls-1" d="M61.9,61.9c48.02,1,95.76,19.83,132.41,56.48,32.03,32.03,50.46,72.54,55.27,114.3,2.88-45.18,21.59-89.51,56.12-124.04,39.13-39.11,90.86-57.92,142.09-56.42,1.49,51.26-17.33,102.99-56.44,142.09-34.53,34.53-78.9,53.24-124.08,56.12-5.47.38-10.97.49-16.48.36-.51,0-1.02,0-1.53-.04-5.51-.15-11.03-.55-16.52-1.17"/>
      <path class="cls-1" d="M438.1,438.1c-48.02-.98-95.76-19.83-132.41-56.48-32.05-32.05-50.48-72.58-55.27-114.36-2.88,45.18-21.59,89.55-56.12,124.08-39.11,39.11-90.84,57.94-142.09,56.44-1.49-51.24,17.31-102.97,56.44-142.09,34.53-34.53,78.9-53.24,124.08-56.12,5.49-.38,10.99-.49,16.48-.36.51,0,1.02.02,1.53.04,5.51.15,11.03.55,16.52,1.17"/>
      <path class="cls-1" d="M438.1,438.1c-48.02-.98-95.76-19.83-132.41-56.48-32.05-32.05-50.48-72.58-55.27-114.36v-.06c-.64-5.47-1.02-10.97-1.17-16.46-.02-.51-.04-1.02-.04-1.53-.13-5.51-.02-10.99.36-16.48-.02-.02-.02-.04,0-.06,2.88-45.18,21.59-89.51,56.12-124.04,39.13-39.11,90.86-57.92,142.09-56.42,1.49,51.26-17.33,102.99-56.44,142.09-34.53,34.53-78.9,53.24-124.08,56.12"/>
    </g>
    <rect class="cls-2" width="500" height="500"/>
  </g>
</svg>