<?xml version="1.0" encoding="UTF-8"?>
<svg id="Layer_2" data-name="Layer 2" xmlns="http://www.w3.org/2000/svg" viewBox="0 0 574.75 574.75">
  <defs>
    <style>
      .cls-1 {
        fill: none;
      }
    </style>
  </defs>
  <g id="Layer_1-2" data-name="Layer 1">
    <rect class="cls-1" width="574.75" height="574.75"/>
    <rect x="69.1" y="318.56" width="62.36" height="62.36" transform="translate(-249.46 450.02) rotate(-90)"/>
    <rect x="69.1" y="380.92" width="62.36" height="62.36" transform="translate(-311.82 512.39) rotate(-90)"/>
    <rect x="443.29" y="379.58" width="62.36" height="62.36" transform="translate(63.71 885.23) rotate(-90)"/>
    <rect x="193.83" y="443.29" width="62.36" height="62.36" transform="translate(-249.46 699.48) rotate(-90)"/>
    <rect x="131.46" y="256.19" width="62.36" height="62.36" transform="translate(-124.73 450.02) rotate(-90)"/>
    <rect x="131.46" y="380.92" width="62.36" height="62.36" transform="translate(574.75 249.46) rotate(90)"/>
    <rect x="131.46" y="69.1" width="62.36" height="62.36" transform="translate(62.36 262.93) rotate(-90)"/>
    <rect x="69.1" y="193.83" width="62.36" height="62.36" transform="translate(-124.73 325.29) rotate(-90)"/>
    <rect x="256.19" y="318.56" width="62.36" height="62.36" transform="translate(-62.36 637.12) rotate(-90)"/>
    <rect x="256.19" y="193.83" width="62.36" height="62.36" transform="translate(62.36 512.39) rotate(-90)"/>
    <rect x="193.83" y="131.46" width="62.36" height="62.36" transform="translate(387.66 -62.36) rotate(90)"/>
    <rect x="193.83" y="69.12" width="62.36" height="62.36" transform="translate(325.32 -124.71) rotate(90)"/>
    <rect x="443.29" y="317.22" width="62.36" height="62.36" transform="translate(126.07 822.87) rotate(-90)"/>
    <rect x="318.56" y="441.94" width="62.36" height="62.36" transform="translate(-123.39 822.87) rotate(-90)"/>
    <rect x="380.92" y="254.85" width="62.36" height="62.36" transform="translate(126.07 698.14) rotate(-90)"/>
    <rect x="380.92" y="379.58" width="62.36" height="62.36" transform="translate(822.87 -1.34) rotate(90)"/>
    <rect x="380.92" y="67.76" width="62.36" height="62.36" transform="translate(313.16 511.05) rotate(-90)"/>
    <rect x="443.29" y="192.49" width="62.36" height="62.36" transform="translate(250.8 698.14) rotate(-90)"/>
    <rect x="318.56" y="130.12" width="62.36" height="62.36" transform="translate(511.05 -188.44) rotate(90)"/>
    <rect x="318.56" y="67.76" width="62.36" height="62.36" transform="translate(448.68 -250.8) rotate(90)"/>
  </g>
</svg>